<?xml version="1.0" encoding="UTF-8" standalone="no"?>
<svg
   xmlns:dc="http://purl.org/dc/elements/1.1/"
   xmlns:cc="http://creativecommons.org/ns#"
   xmlns:rdf="http://www.w3.org/1999/02/22-rdf-syntax-ns#"
   xmlns:svg="http://www.w3.org/2000/svg"
   xmlns="http://www.w3.org/2000/svg"
   xmlns:sodipodi="http://sodipodi.sourceforge.net/DTD/sodipodi-0.dtd"
   xmlns:inkscape="http://www.inkscape.org/namespaces/inkscape"
   width="1600px"
   height="300px"
   viewBox="0 0 1600 300"
   version="1.1"
   id="SVGRoot"
   sodipodi:docname="aboutToText.svg"
   inkscape:version="1.0.2-2 (e86c870879, 2021-01-15)">
  <defs
     id="defs2133" />
  <sodipodi:namedview
     id="base"
     pagecolor="#ffffff"
     bordercolor="#666666"
     borderopacity="1.0"
     inkscape:pageopacity="0.0"
     inkscape:pageshadow="2"
     inkscape:zoom="0.35"
     inkscape:cx="-293.40541"
     inkscape:cy="219.76324"
     inkscape:document-units="px"
     inkscape:current-layer="layer1"
     inkscape:document-rotation="0"
     showgrid="false"
     inkscape:window-width="1366"
     inkscape:window-height="705"
     inkscape:window-x="-8"
     inkscape:window-y="-8"
     inkscape:window-maximized="1" />
  <metadata
     id="metadata2136">
    <rdf:RDF>
      <cc:Work
         rdf:about="">
        <dc:format>image/svg+xml</dc:format>
        <dc:type
           rdf:resource="http://purl.org/dc/dcmitype/StillImage" />
        <dc:title></dc:title>
      </cc:Work>
    </rdf:RDF>
  </metadata>
  <g
     inkscape:label="Layer 1"
     inkscape:groupmode="layer"
     id="layer1">
    <path
       id="path2150"
       style="fill:#9c72f7;stroke-width:2;fill-opacity:1"
       d="M -2.8574219 -2.8574219 L -2.8574219 308.57227 C -2.8574219 308.57227 0.7142856 306.78599 7.3046875 303.63867 C 13.895089 300.49135 23.504185 295.98158 35.580078 290.53516 C 47.655971 285.08873 62.197823 278.70591 78.654297 271.80859 C 86.882534 268.35993 95.59082 264.7832 104.70703 261.13086 C 113.82324 257.47852 123.34877 253.75 133.21484 250 C 143.08092 246.25 153.28781 242.47796 163.76562 238.73633 C 174.24344 234.9947 184.99191 231.28348 195.94336 227.65625 C 206.89481 224.02902 218.04897 220.48493 229.33594 217.07812 C 240.62291 213.67132 252.04297 210.40262 263.52734 207.32227 C 275.01172 204.24191 286.55985 201.351 298.10352 198.70312 C 309.64718 196.05525 321.18555 193.65039 332.65039 191.54102 C 344.11523 189.43164 355.506 187.61719 366.75391 186.15234 C 372.37786 185.41992 377.96594 184.77407 383.50977 184.22266 C 389.05359 183.67125 394.55357 183.21456 400 182.85742 C 405.44643 182.50028 411.41807 182.23526 417.87891 182.05469 C 424.33974 181.87411 431.28948 181.77699 438.69531 181.75781 C 453.50698 181.71945 470.13923 181.98968 488.31445 182.50586 C 506.48968 183.02204 526.20787 183.78502 547.19141 184.73438 C 568.17494 185.68373 590.42355 186.81892 613.66016 188.08008 C 660.13337 190.6024 710.55887 193.62667 762.71289 196.66797 C 814.86691 199.70926 868.74972 202.76814 922.14258 205.35742 C 948.83901 206.65206 975.41267 207.82854 1001.5859 208.82812 C 1027.7592 209.82771 1053.5321 210.64927 1078.627 211.23242 C 1103.7218 211.81557 1128.1384 212.16169 1151.5996 212.20703 C 1163.3302 212.2297 1174.8229 212.17751 1186.041 212.04297 C 1197.2591 211.90843 1208.2037 211.69169 1218.8398 211.38477 C 1229.476 211.07785 1239.8042 210.68002 1249.7891 210.18555 C 1259.7739 209.69107 1269.4156 209.09954 1278.6797 208.40234 C 1287.9438 207.70515 1296.8288 206.90142 1305.3027 205.98633 C 1313.7767 205.07124 1321.8387 204.04464 1329.4531 202.89648 C 1337.0675 201.74833 1344.2345 200.48038 1350.9199 199.08398 C 1357.6054 197.68759 1363.809 196.16176 1369.4961 194.50195 C 1375.1832 192.84215 1380.3533 191.04776 1384.9727 189.10938 C 1387.2823 188.14018 1389.4547 187.13543 1391.4844 186.09375 C 1393.5141 185.05207 1395.4015 183.97349 1397.1426 182.85742 C 1404.1069 178.39314 1411.0152 174.14104 1417.8477 170.0918 C 1424.6801 166.04255 1431.4375 162.19531 1438.0977 158.54297 C 1444.7578 154.89063 1451.3221 151.43178 1457.7695 148.1582 C 1464.2169 144.88463 1470.546 141.79771 1476.7402 138.88477 C 1482.9344 135.97182 1488.992 133.23451 1494.8926 130.66406 C 1500.7931 128.09361 1506.5371 125.68945 1512.1035 123.44336 C 1523.2363 118.95117 1533.6613 115.08873 1543.2148 111.78516 C 1552.7684 108.48158 1561.4509 105.73661 1569.1016 103.47656 C 1576.7522 101.21652 1583.3708 99.441685 1588.7949 98.080078 C 1599.6431 95.356864 1605.7148 94.285156 1605.7148 94.285156 L 1605.7148 -2.8574219 L -2.8574219 -2.8574219 z " />
    <path
       style="fill:none;stroke:#000000;stroke-width:3;stroke-linecap:butt;stroke-linejoin:miter;stroke-opacity:1;stroke-miterlimit:4;stroke-dasharray:none"
       d="m -2.856652,308.57085 c 0,0 228.571432,-114.2857 402.857142,-125.71427 174.28571,-11.42857 885.71431,71.42857 997.14291,0 111.4285,-71.42857 208.5714,-88.571424 208.5714,-88.571424"
       id="path2148" />
  </g>
</svg>
