<?xml version="1.0" encoding="UTF-8" standalone="no"?>
<svg
   xmlns:dc="http://purl.org/dc/elements/1.1/"
   xmlns:cc="http://creativecommons.org/ns#"
   xmlns:rdf="http://www.w3.org/1999/02/22-rdf-syntax-ns#"
   xmlns:svg="http://www.w3.org/2000/svg"
   xmlns="http://www.w3.org/2000/svg"
   xmlns:sodipodi="http://sodipodi.sourceforge.net/DTD/sodipodi-0.dtd"
   xmlns:inkscape="http://www.inkscape.org/namespaces/inkscape"
   width="700.00653"
   height="312.08011"
   viewBox="0 0 700.00653 312.08011"
   version="1.1"
   id="SVGRoot"
   sodipodi:docname="aboutToText_mobile.svg"
   inkscape:version="1.0.2-2 (e86c870879, 2021-01-15)">
  <defs
     id="defs2133" />
  <sodipodi:namedview
     id="base"
     pagecolor="#ffffff"
     bordercolor="#666666"
     borderopacity="1.0"
     inkscape:pageopacity="0.0"
     inkscape:pageshadow="2"
     inkscape:zoom="0.35"
     inkscape:cx="260.20178"
     inkscape:cy="222.62066"
     inkscape:document-units="px"
     inkscape:current-layer="layer1"
     inkscape:document-rotation="0"
     showgrid="false"
     inkscape:window-width="1366"
     inkscape:window-height="705"
     inkscape:window-x="-8"
     inkscape:window-y="-8"
     inkscape:window-maximized="1" />
  <metadata
     id="metadata2136">
    <rdf:RDF>
      <cc:Work
         rdf:about="">
        <dc:format>image/svg+xml</dc:format>
        <dc:type
           rdf:resource="http://purl.org/dc/dcmitype/StillImage" />
        <dc:title></dc:title>
      </cc:Work>
    </rdf:RDF>
  </metadata>
  <g
     inkscape:label="Layer 1"
     inkscape:groupmode="layer"
     id="layer1"
     transform="translate(3.6071868,2.8574219)">
    <path
       id="path2150"
       style="fill:#9c72f7;fill-opacity:1;stroke-width:1.3183"
       d="M -2.8611951,-2.8574219 V 308.57558 c 0,0 1.5518266,-1.7863 4.4152079,-4.93366 2.8633812,-3.14735 7.0383172,-7.65717 12.2850212,-13.10365 5.246704,-5.44648 11.564812,-11.82937 18.714779,-18.72676 3.574984,-3.4487 7.358538,-7.02547 11.319326,-10.67785 3.960789,-3.65238 8.099417,-7.38094 12.386003,-11.13098 4.286589,-3.75004 8.721253,-7.52212 13.273626,-11.26378 4.552377,-3.74167 9.222346,-7.45293 13.980504,-11.0802 4.758159,-3.62727 9.604391,-7.1714 14.508325,-10.57824 4.903933,-3.40684 9.865693,-6.67558 14.855393,-9.75596 4.9897,-3.08039 10.00711,-5.97133 15.02258,-8.61924 5.01545,-2.6479 10.02861,-5.05278 15.00983,-7.16218 4.98122,-2.1094 9.93025,-3.92387 14.81721,-5.38873 2.44348,-0.73243 4.87138,-1.37829 7.28005,-1.9297 2.40866,-0.55142 4.79828,-1.00811 7.16463,-1.36526 2.36636,-0.35714 4.9609,-0.62216 7.76799,-0.80274 2.80708,-0.18058 5.82658,-0.2777 9.04425,-0.29688 6.43534,-0.0384 13.66167,0.23187 21.5584,0.74806 7.89673,0.51618 16.46384,1.27917 25.58071,2.22854 9.11688,0.94936 18.7834,2.08456 28.87918,3.34574 20.19157,2.52234 42.10031,5.54665 64.76006,8.58798 22.65975,3.04132 46.07062,6.10023 69.26862,8.68954 11.59899,1.29465 23.14465,2.47115 34.51633,3.47074 11.37171,0.9996 22.56945,1.82117 33.47262,2.40432 10.90314,0.58316 21.51159,0.92928 31.70496,0.97462 5.09668,0.0227 10.09,-0.0295 14.96401,-0.16406 4.87401,-0.13454 9.62919,-0.35128 14.25034,-0.65821 4.6212,-0.30692 9.10856,-0.70475 13.44677,-1.19923 4.33818,-0.49448 8.52728,-1.08602 12.55233,-1.78323 4.02503,-0.69719 7.88537,-1.50093 11.56709,-2.41603 3.68176,-0.9151 7.18452,-1.94171 10.4928,-3.08989 3.30829,-1.14816 6.42218,-2.41612 9.32684,-3.81254 2.90471,-1.3964 5.60003,-2.92225 8.07095,-4.58207 2.47091,-1.65982 4.7172,-3.45423 6.72423,-5.39263 1.00347,-0.96921 1.94733,-1.97397 2.82919,-3.01566 0.88186,-1.04169 1.70188,-2.12029 2.45836,-3.23637 3.02583,-4.46433 6.02733,-8.71647 8.9959,-12.76575 2.96852,-4.0493 5.90446,-7.89658 8.79816,-11.54896 2.89367,-3.65238 5.74572,-7.11126 8.54696,-10.38488 2.80126,-3.2736 5.55111,-6.36055 8.24234,-9.27353 2.69124,-2.91298 5.32313,-5.65032 7.88681,-8.22079 2.56364,-2.57048 5.05927,-4.97467 7.47775,-7.22078 4.83695,-4.49224 9.36638,-8.35472 13.51717,-11.65832 4.15082,-3.30362 7.92316,-6.04862 11.24723,-8.30869 3.324,-2.26007 6.19964,-4.034919 8.55629,-5.39654 4.7133,-2.723243 7.35132,-3.794963 7.35132,-3.794963 V -2.8574219 Z" />
    <path
       style="fill:none;stroke:#000000;stroke-width:1.97745;stroke-linecap:butt;stroke-linejoin:miter;stroke-miterlimit:4;stroke-dasharray:none;stroke-opacity:1"
       d="m -2.8608606,308.57416 c 0,0 99.3091446,-114.28692 175.0323606,-125.71561 75.72322,-11.42869 384.82295,71.42933 433.23617,0 48.41317,-71.42933 90.61958,-88.572363 90.61958,-88.572363"
       id="path2148" />
  </g>
</svg>
