<?xml version="1.0" encoding="UTF-8" standalone="no"?>
<svg
   xmlns:dc="http://purl.org/dc/elements/1.1/"
   xmlns:cc="http://creativecommons.org/ns#"
   xmlns:rdf="http://www.w3.org/1999/02/22-rdf-syntax-ns#"
   xmlns:svg="http://www.w3.org/2000/svg"
   xmlns="http://www.w3.org/2000/svg"
   xmlns:sodipodi="http://sodipodi.sourceforge.net/DTD/sodipodi-0.dtd"
   xmlns:inkscape="http://www.inkscape.org/namespaces/inkscape"
   id="Lager_1"
   data-name="Lager 1"
   viewBox="0 0 32 32"
   version="1.1"
   sodipodi:docname="favicon.svg"
   inkscape:version="1.0.2-2 (e86c870879, 2021-01-15)">
  <metadata
     id="metadata22">
    <rdf:RDF>
      <cc:Work
         rdf:about="">
        <dc:format>image/svg+xml</dc:format>
        <dc:type
           rdf:resource="http://purl.org/dc/dcmitype/StillImage" />
        <dc:title></dc:title>
      </cc:Work>
    </rdf:RDF>
  </metadata>
  <sodipodi:namedview
     pagecolor="#ffffff"
     bordercolor="#666666"
     borderopacity="1"
     objecttolerance="10"
     gridtolerance="10"
     guidetolerance="10"
     inkscape:pageopacity="0"
     inkscape:pageshadow="2"
     inkscape:window-width="1366"
     inkscape:window-height="705"
     id="namedview20"
     showgrid="false"
     inkscape:zoom="11.888233"
     inkscape:cx="15.363694"
     inkscape:cy="10.917606"
     inkscape:window-x="-8"
     inkscape:window-y="-8"
     inkscape:window-maximized="1"
     inkscape:current-layer="Lager_1" />
  <defs
     id="defs7">
    <style
       id="style2">
      .cls-1 {
        fill: none;
      }

      .cls-2 {
        clip-path: url(#clip-path);
      }

      .cls-3 {
        fill: #15443e;
      }

      .cls-4 {
        fill: #9371ef;
      }
    </style>
    <clipPath
       id="clip-path">
      <path
         class="cls-1"
         d="M0,16A16,16,0,1,0,16,0,16,16,0,0,0,0,16"
         id="path4" />
    </clipPath>
  </defs>
  <g
     class="cls-2"
     clip-path="url(#clip-path)"
     id="g17"
     style="stroke-width:1;stroke-miterlimit:4;stroke-dasharray:none">
    <rect
       class="cls-3"
       x="-47.85"
       y="-11.93"
       width="93.22"
       height="42.14"
       id="rect9"
       style="stroke-width:1;stroke-miterlimit:4;stroke-dasharray:none" />
    <polygon
       class="cls-4"
       points="-41.66 24.68 -41.66 130.16 45.85 311.17 44.93 24.68 -41.66 24.68"
       id="polygon11"
       style="stroke-width:1;stroke-miterlimit:4;stroke-dasharray:none" />
    <path
       class="cls-4"
       d="M-52.47,19.85s-8.2-3.21,7.56-1.75,20.21,5.13,31.08.14,21.42-8,26.29-4.32c8.16,6.13,16.11,5.15,19.37,4.9S46.9,14.31,53.6,14.31h6.7L57.63,21S49.11,41.87,27.06,36.45C6.15,31.31-26,42-36.77,39.88-50.25,37.2-50.35,41-50.35,41l-8.11,36.77-7.26,7.52Z"
       id="path13"
       style="stroke-width:1;stroke-miterlimit:4;stroke-dasharray:none" />
    <path
       d="M-52.58,19.91c0,.07,0,0,0,0l-.05,0-.11-.05-.22-.09-.43-.21a5.38,5.38,0,0,1-.83-.5,1.53,1.53,0,0,1-.37-.35.45.45,0,0,1,0-.57,1.7,1.7,0,0,1,.93-.4,21.16,21.16,0,0,1,3.81-.11c2.53.11,5,.35,7.56.63s5,.68,7.51,1.11,5,.9,7.48,1.16a23.78,23.78,0,0,0,7.53-.3A34.06,34.06,0,0,0-12.7,17.7,70.63,70.63,0,0,1,1.63,12.82a21.48,21.48,0,0,1,7.54-.3A9.2,9.2,0,0,1,12.63,14c.52.36,1,.73,1.56,1.07s1.07.67,1.63,1a24.71,24.71,0,0,0,7.11,2.51,28.88,28.88,0,0,0,7.54.33,34.9,34.9,0,0,0,7.4-1.53c2.44-.66,4.88-1.33,7.34-1.9a44.11,44.11,0,0,1,7.49-1.2c2.54-.07,5.06,0,7.59-.05h.19l-.07.17c-.95,2.39-1.87,4.78-2.86,7.16A31.69,31.69,0,0,1,53.38,28a25.54,25.54,0,0,1-12.63,8.55,24.83,24.83,0,0,1-7.67.88c-.64,0-1.28-.1-1.93-.14s-1.27-.19-1.91-.28l-3.78-.76a65,65,0,0,0-15.32-1C-.12,35.66-10.27,37.43-20.43,39c-2.54.38-5.09.73-7.65,1-1.28.13-2.56.2-3.85.28a26.18,26.18,0,0,1-3.86-.14c-1.3-.1-2.54-.44-3.81-.61s-2.54-.34-3.82-.41a17.32,17.32,0,0,0-3.81.14,6.2,6.2,0,0,0-1.81.53A2,2,0,0,0-50.22,41v0l-8.11,36.77v0l0,0-7.26,7.52-.3.31.08-.42Zm.22-.12L-65.6,85.34l-.21-.11,7.26-7.52,0,.06L-50.47,41v0a2.16,2.16,0,0,1,1.32-1.48A6.82,6.82,0,0,1-47.28,39a18.6,18.6,0,0,1,3.87-.14,38.39,38.39,0,0,1,3.85.42c1.27.16,2.53.5,3.8.6a25.64,25.64,0,0,0,3.82.14c1.28-.08,2.56-.15,3.84-.28,2.55-.27,5.09-.62,7.63-1C-10.32,37.18-.16,35.41,10.13,35a65.54,65.54,0,0,1,15.38,1l3.77.77c.63.09,1.26.19,1.9.27s1.27.11,1.91.14a24.58,24.58,0,0,0,7.59-.87,25.33,25.33,0,0,0,12.51-8.47,31.37,31.37,0,0,0,4.13-6.44c1-2.36,1.91-4.77,2.86-7.15l.12.17h0c-2.53,0-5.06,0-7.58,0a45.07,45.07,0,0,0-7.46,1.18c-2.46.55-4.9,1.21-7.34,1.86-1.22.33-2.44.65-3.67,1-.62.14-1.24.28-1.87.37s-1.26.12-1.89.18a29,29,0,0,1-7.56-.37,24.33,24.33,0,0,1-7.12-2.54c-.57-.28-1.09-.64-1.64-1s-1-.72-1.56-1.08a9,9,0,0,0-3.44-1.49,20.74,20.74,0,0,0-7.53.28,69.71,69.71,0,0,0-14.3,4.93,34.06,34.06,0,0,1-7.12,2.58,24.28,24.28,0,0,1-7.56.33c-2.52-.25-5-.73-7.5-1.14s-5-.78-7.5-1.07-5-.5-7.55-.6a20.37,20.37,0,0,0-3.75.12,1.58,1.58,0,0,0-.79.31c-.14.15.13.42.36.59a5.78,5.78,0,0,0,.8.47l.42.2.22.09.1.05.06,0A.35.35,0,0,1-52.36,19.79Z"
       id="path15"
       style="stroke-width:1;stroke-miterlimit:4;stroke-dasharray:none" />
  </g>
</svg>
