<?xml version="1.0" encoding="UTF-8" standalone="no"?>
<svg
   xmlns:dc="http://purl.org/dc/elements/1.1/"
   xmlns:cc="http://creativecommons.org/ns#"
   xmlns:rdf="http://www.w3.org/1999/02/22-rdf-syntax-ns#"
   xmlns:svg="http://www.w3.org/2000/svg"
   xmlns="http://www.w3.org/2000/svg"
   xmlns:sodipodi="http://sodipodi.sourceforge.net/DTD/sodipodi-0.dtd"
   xmlns:inkscape="http://www.inkscape.org/namespaces/inkscape"
   width="700.20789"
   height="300.9772"
   viewBox="0 0 700.20789 300.9772"
   version="1.1"
   id="SVGRoot"
   sodipodi:docname="textToAbout_mobile.svg"
   inkscape:version="1.0.2-2 (e86c870879, 2021-01-15)">
  <defs
     id="defs2183" />
  <sodipodi:namedview
     id="base"
     pagecolor="#ffffff"
     bordercolor="#666666"
     borderopacity="1.0"
     inkscape:pageopacity="0.0"
     inkscape:pageshadow="2"
     inkscape:zoom="0.35"
     inkscape:cx="708.90679"
     inkscape:cy="120.72726"
     inkscape:document-units="px"
     inkscape:current-layer="layer1"
     inkscape:document-rotation="0"
     showgrid="false"
     inkscape:window-width="1366"
     inkscape:window-height="705"
     inkscape:window-x="-8"
     inkscape:window-y="-8"
     inkscape:window-maximized="1" />
  <metadata
     id="metadata2186">
    <rdf:RDF>
      <cc:Work
         rdf:about="">
        <dc:format>image/svg+xml</dc:format>
        <dc:type
           rdf:resource="http://purl.org/dc/dcmitype/StillImage" />
        <dc:title></dc:title>
      </cc:Work>
    </rdf:RDF>
  </metadata>
  <g
     inkscape:label="Layer 1"
     inkscape:groupmode="layer"
     id="layer1"
     transform="translate(1.268313,-104.73763)">
    <path
       id="rect2761"
       style="fill:#113734;fill-opacity:1;stroke-width:1.32183"
       d="M -0.35958044,105.35545 V 405.71484 H 698.93956 V 281.77358 c -0.56236,-0.18693 -0.8846,-0.2473 -1.55849,-0.49474 -1.94769,-0.71514 -4.38206,-1.6979 -7.42535,-3.03879 -3.04325,-1.34089 -6.6952,-3.03851 -11.07749,-5.18394 -4.38228,-2.14542 -9.49513,-4.73809 -15.4599,-7.86683 -5.96481,-3.12875 -12.78186,-6.79468 -20.57261,-11.08553 -3.89539,-2.14543 -8.01931,-4.13399 -12.33864,-5.97981 -4.31929,-1.84582 -8.83377,-3.54861 -13.50941,-5.12136 -4.67569,-1.57275 -9.51298,-3.01491 -14.47744,-4.34114 -4.9645,-1.32622 -10.05605,-2.53679 -15.2418,-3.64302 -5.1857,-1.10624 -10.4656,-2.10842 -15.805,-3.0212 -5.33945,-0.91278 -10.73823,-1.73562 -16.1638,-2.48149 -10.85105,-1.49173 -21.80742,-2.67535 -32.59765,-3.65867 -10.79019,-0.98332 -21.41438,-1.7669 -31.60324,-2.45411 -10.18886,-0.68721 -19.94192,-1.27971 -28.98894,-1.88312 -9.04703,-0.60339 -17.38836,-1.21768 -24.75308,-1.94959 -3.68235,-0.36595 -7.12033,-0.76082 -10.28077,-1.1987 -3.16043,-0.43789 -6.04307,-0.91851 -8.61402,-1.45486 -5.14191,-1.07272 -12.09541,-2.23538 -20.48996,-3.41425 -8.39455,-1.17886 -18.23014,-2.37421 -29.13722,-3.51396 -10.90707,-1.13977 -22.88525,-2.22225 -35.56471,-3.17764 -12.67947,-0.95538 -26.05987,-1.78338 -39.77161,-2.40913 -13.71175,-0.62575 -27.75484,-1.0498 -41.75875,-1.20066 -14.00389,-0.15085 -27.96933,-0.0274 -41.52526,0.44194 -6.77796,0.23465 -13.45319,0.55493 -19.98039,0.97187 -6.5272,0.41693 -12.90601,0.9294 -19.08993,1.54677 -6.18392,0.61737 -12.1727,1.34047 -17.92082,2.17643 -5.74813,0.83596 -11.25584,1.78423 -16.47564,2.85693 -2.60991,0.53636 -5.19072,0.9359 -7.74147,1.20652 -2.55075,0.27063 -5.07152,0.41317 -7.56167,0.43412 -2.49015,0.0209 -4.9495,-0.0787 -7.37761,-0.29137 -2.42811,-0.21265 -4.82467,-0.53775 -7.18929,-0.96795 -2.36462,-0.4302 -4.69703,-0.96593 -6.996718,-1.59762 -2.299682,-0.63168 -4.566573,-1.35932 -6.799874,-2.17643 -2.233305,-0.8171 -4.433305,-1.72381 -6.598777,-2.71027 -2.165477,-0.98646 -4.296365,-2.05352 -6.392569,-3.19327 -2.096204,-1.13976 -4.157461,-2.35236 -6.182943,-3.62935 -2.025487,-1.27698 -4.015744,-2.61837 -5.969065,-4.01652 -3.906642,-2.79632 -7.666724,-5.81834 -11.276039,-9.00296 -3.609315,-3.18461 -7.067258,-6.53237 -10.367681,-9.97678 -3.300423,-3.44441 -6.44357,-6.98576 -9.423538,-10.56147 -2.979967,-3.57571 -5.797363,-7.18438 -8.44531,-10.76288 -2.647947,-3.5785 -5.126932,-7.12627 -7.431294,-10.57907 -2.304362,-3.45279 -4.43398,-6.81144 -6.383193,-10.01001 -1.949213,-3.19859 -3.717655,-6.23794 -5.3001544,-9.05381 -3.164998,-5.63173 -5.5852479,-10.3701 -7.2140046,-13.69999 -1.62875667,-3.32987 -2.46602044,-5.25042 -2.46602044,-5.25042 z" />
    <path
       style="fill:none;stroke:#000000;stroke-width:1.98274;stroke-linecap:butt;stroke-linejoin:miter;stroke-miterlimit:4;stroke-dasharray:none;stroke-opacity:1"
       d="m -0.35948258,105.13366 c 0,0 53.60045758,123.00432 137.11745258,105.84093 83.517,-17.1634 240.57882,-2.86057 281.71405,5.72113 41.13522,8.5817 162.04791,2.86057 224.37401,37.18735 42.87438,23.61353 50.55361,28.02308 54.72976,28.63325 1.89469,0.27682 0,0 0,0"
       id="path2765"
       sodipodi:nodetypes="cssssc" />
  </g>
</svg>
