<?xml version="1.0" encoding="UTF-8" standalone="no"?>
<svg
   xmlns:dc="http://purl.org/dc/elements/1.1/"
   xmlns:cc="http://creativecommons.org/ns#"
   xmlns:rdf="http://www.w3.org/1999/02/22-rdf-syntax-ns#"
   xmlns:svg="http://www.w3.org/2000/svg"
   xmlns="http://www.w3.org/2000/svg"
   xmlns:sodipodi="http://sodipodi.sourceforge.net/DTD/sodipodi-0.dtd"
   xmlns:inkscape="http://www.inkscape.org/namespaces/inkscape"
   width="1600"
   height="500"
   viewBox="0 0 1600 500"
   version="1.1"
   id="SVGRoot"
   sodipodi:docname="top_layer_full_final.svg"
   inkscape:version="1.0.2-2 (e86c870879, 2021-01-15)">
  <defs
     id="defs1439" />
  <sodipodi:namedview
     id="base"
     pagecolor="#ffffff"
     bordercolor="#666666"
     borderopacity="1.0"
     inkscape:pageopacity="0.0"
     inkscape:pageshadow="2"
     inkscape:zoom="0.49497475"
     inkscape:cx="114.35778"
     inkscape:cy="39.149682"
     inkscape:document-units="px"
     inkscape:current-layer="layer1"
     inkscape:document-rotation="0"
     showgrid="false"
     inkscape:window-width="1366"
     inkscape:window-height="705"
     inkscape:window-x="-8"
     inkscape:window-y="-8"
     inkscape:window-maximized="1" />
  <metadata
     id="metadata1442">
    <rdf:RDF>
      <cc:Work
         rdf:about="">
        <dc:format>image/svg+xml</dc:format>
        <dc:type
           rdf:resource="http://purl.org/dc/dcmitype/StillImage" />
        <dc:title></dc:title>
      </cc:Work>
    </rdf:RDF>
  </metadata>
  <g
     inkscape:label="Layer 1"
     inkscape:groupmode="layer"
     id="layer1"
     transform="translate(6.9930571,2.796875)">
    <path
       id="rect1503"
       style="fill:#9c72f7;fill-opacity:1;stroke-width:3.65669"
       d="m 1605.6202,309.00972 c -0.2486,0.10403 -0.4143,0.22958 -0.6781,0.33008 -1.3752,0.52647 -2.9428,1.00376 -4.6906,1.43555 -3.4934,0.86356 -7.7074,1.54102 -12.5711,2.04883 -4.8637,0.50781 -10.3765,0.84654 -16.461,1.0293 -6.0855,0.18275 -12.7434,0.20926 -19.9019,0.0976 -7.1578,-0.1116 -14.815,-0.36104 -22.8973,-0.73632 -8.0823,-0.37528 -16.5899,-0.87612 -25.4481,-1.48438 -17.7158,-1.21653 -36.8339,-2.86775 -56.7605,-4.83204 -19.9256,-1.9643 -40.6591,-4.24052 -61.6063,-6.70704 -20.9466,-2.46653 -42.1057,-5.1225 -62.8832,-7.84572 -20.779,-2.72322 -41.177,-5.51369 -60.5981,-8.24806 -19.421,-2.73439 -37.8655,-5.41407 -54.7403,-7.91408 -8.4368,-1.25 -16.9651,-2.29911 -25.5642,-3.16407 -8.6018,-0.86496 -17.2752,-1.54521 -26.0055,-2.0586 -8.7329,-0.51339 -17.5212,-0.85938 -26.3523,-1.05469 -8.8301,-0.19531 -17.7014,-0.23967 -26.5982,-0.15039 -8.8975,0.0893 -17.8201,0.31194 -26.7519,0.65235 -8.9311,0.3404 -17.8731,0.79743 -26.806,1.35546 -8.9342,0.55804 -17.8599,1.21681 -26.7639,1.959 -8.9029,0.74219 -17.7831,1.56808 -26.62358,2.46094 -17.68215,1.78571 -35.20617,3.83985 -52.44491,6.02735 -17.23897,2.18751 -34.19324,4.50866 -50.73082,6.8301 -16.53762,2.32143 -32.65902,4.64258 -48.23732,6.83009 -15.5783,2.1875 -30.61308,4.24164 -44.97416,6.02735 -7.18044,0.89286 -14.53928,1.518 -22.06485,1.90234 -7.52545,0.38435 -15.2179,0.52874 -23.06031,0.45899 -7.84243,-0.0698 -15.83613,-0.35477 -23.9675,-0.82422 -8.13132,-0.46945 -16.39986,-1.12472 -24.79207,-1.93945 -8.39225,-0.81474 -16.90725,-1.78894 -25.53237,-2.89455 -8.62498,-1.1056 -17.36024,-2.34151 -26.18995,-3.68359 -17.65957,-2.68416 -35.69942,-5.78823 -54.00984,-9.09182 -18.31028,-3.30358 -36.89087,-6.8072 -55.62754,-10.29494 -18.73656,-3.48773 -37.62947,-6.95871 -56.56805,-10.19533 -9.46924,-1.6183 -18.95065,-3.17843 -28.4283,-4.65235 -9.47776,-1.47392 -18.95261,-2.86161 -28.41075,-4.13672 -9.45799,-1.27512 -18.89811,-2.43709 -28.30849,-3.459 -9.41052,-1.0219 -18.79133,-1.9029 -28.12601,-2.61719 -9.33472,-0.71429 -19.00562,-1.23996 -28.93498,-1.59571 -9.92925,-0.35575 -20.11717,-0.54297 -30.48401,-0.58203 -10.36688,-0.0391 -20.91268,0.0709 -31.56004,0.30664 -10.64722,0.23577 -21.39592,0.59766 -32.16662,1.06641 -10.77083,0.46875 -21.56308,1.04325 -32.30016,1.70313 -10.73725,0.65988 -21.41824,1.4057 -31.96459,2.21485 -21.09267,1.6183 -41.64744,3.49275 -61.0347,5.45704 -19.3875,1.96428 -37.607978,4.0187 -54.033384,5.99415 -16.425408,1.97544 -31.055126,3.87166 -43.261977,5.52345 -20.8297679,2.81861 -29.7949509,4.24194 -33.3899079,4.79883 V 379.04105 H 1605.6202 Z" />
    <path
       id="path1518"
       style="fill:#154340;stroke-width:3.65669"
       d="m -5.6853599,78.03545 v 197.32226 c 3.594956,-0.55689 12.560857,-1.98023 33.3906249,-4.79883 12.206851,-1.65179 26.83631,-3.54799 43.261718,-5.52343 16.425406,-1.97545 34.645697,-4.02986 54.033197,-5.99414 19.38726,-1.96429 39.94249,-3.83874 61.03516,-5.45703 10.54635,-0.80915 21.22564,-1.55497 31.96289,-2.21485 10.73708,-0.65987 21.52995,-1.23437 32.30078,-1.70312 10.7707,-0.46875 21.5188,-0.83064 32.16602,-1.06641 10.64736,-0.23577 21.19366,-0.3457 31.56054,-0.30664 10.36684,0.0391 20.55513,0.22628 30.48438,0.58203 9.92936,0.35575 19.60082,0.88141 28.93555,1.5957 9.33467,0.71428 18.71448,1.59529 28.125,2.61719 9.41037,1.02191 18.8506,2.18388 28.30859,3.45899 9.45814,1.27511 18.9324,2.66279 28.41015,4.13671 9.47765,1.47391 18.96045,3.03405 28.42969,4.65235 18.93858,3.23661 37.8318,6.70759 56.56836,10.19531 18.73667,3.48773 37.31668,6.99135 55.62695,10.29492 18.31043,3.30358 36.3502,6.40765 54.00977,9.0918 8.82971,1.34208 17.56447,2.57799 26.18945,3.68359 8.62512,1.10561 17.14096,2.07979 25.53321,2.89453 8.39221,0.81473 16.65969,1.47001 24.79101,1.93946 8.13137,0.46945 16.12632,0.75446 23.96875,0.82422 7.84241,0.0697 15.5351,-0.0746 23.06055,-0.45899 7.52557,-0.38434 14.88401,-1.00948 22.06445,-1.90234 14.36108,-1.78571 29.39631,-3.83985 44.97461,-6.02735 15.5783,-2.1875 31.69871,-4.50864 48.23633,-6.83007 16.53758,-2.32143 33.4915,-4.64258 50.73047,-6.83008 17.23874,-2.1875 34.76316,-4.24164 52.44528,-6.02735 8.84048,-0.89286 17.72018,-1.71874 26.62308,-2.46093 8.904,-0.74219 17.8294,-1.40095 26.7637,-1.95899 8.9329,-0.55803 17.8756,-1.01507 26.8067,-1.35547 8.9318,-0.34041 17.8544,-0.56305 26.7519,-0.65234 8.8968,-0.0893 17.7676,-0.0449 26.5977,0.15039 8.8311,0.19531 17.6206,0.5413 26.3535,1.05469 8.7303,0.51339 17.4021,1.19364 26.0039,2.05859 8.5991,0.86496 17.1277,1.91406 25.5645,3.16406 16.8748,2.5 35.3192,5.17969 54.7402,7.91407 19.4211,2.73437 39.8206,5.52482 60.5996,8.24804 20.7775,2.72321 41.9362,5.37919 62.8828,7.84571 20.9472,2.46652 41.6799,4.74274 61.6055,6.70703 19.9266,1.96429 39.0459,3.61551 56.7617,4.83203 8.8582,0.60826 17.365,1.10909 25.4473,1.48437 8.0823,0.37528 15.7387,0.62473 22.8965,0.73633 7.1585,0.11161 13.8168,0.0851 19.9023,-0.0976 6.0845,-0.18276 11.5973,-0.52149 16.461,-1.0293 4.8637,-0.50781 9.0788,-1.18527 12.5722,-2.04883 1.7478,-0.43178 3.3143,-0.90908 4.6895,-1.43555 0.2638,-0.1005 0.4291,-0.22604 0.6777,-0.33007 V 78.03545 Z" />
    <path
       style="fill:none;stroke:#000000;stroke-width:2.00516;stroke-linecap:butt;stroke-linejoin:miter;stroke-miterlimit:4;stroke-dasharray:none;stroke-opacity:1"
       d="m -7.7164429,275.86234 c 0,0 235.5205229,-37.14285 384.8750529,-25.71428 149.3545,11.42857 310.19772,65.71428 425.08577,51.42857 114.88802,-14.28571 272.85892,-45.71429 407.85342,-25.71429 134.9927,20 363.8611,52.14287 395.456,32.14287"
       id="path1505"
       sodipodi:nodetypes="csscc" />
    <rect
       style="fill:#9c72f7;fill-opacity:1;stroke-width:2.00094;stroke-miterlimit:4;stroke-dasharray:none"
       id="rect3445"
       width="1611.47"
       height="56.527847"
       x="-5.6854858"
       y="377.04105" />
    <rect
       style="fill:#9c72f7;fill-opacity:1;stroke-width:2.05485;stroke-miterlimit:4;stroke-dasharray:none"
       id="rect3529"
       width="1611.4698"
       height="68.241302"
       x="-5.6854858"
       y="429.99747" />
    <rect
       style="fill:#154340;fill-opacity:1;stroke-width:2.08126;stroke-miterlimit:4;stroke-dasharray:none"
       id="rect3531"
       width="1611.3755"
       height="87.398323"
       x="-5.68536"
       y="-2.796875" />
    <text
       xml:space="preserve"
       style="font-style:normal;font-weight:normal;font-size:222.657px;line-height:1.25;font-family:sans-serif;fill:#000000;fill-opacity:1;stroke:none;stroke-width:2.60925"
       x="551.4411"
       y="306.8205"
       id="text3384"
       transform="scale(0.88674574,1.127719)"><tspan
         sodipodi:role="line"
         id="tspan3382"
         x="551.4411"
         y="306.8205"
         style="font-size:222.657px;fill:#ffffff;fill-opacity:1;stroke-width:2.60925">ängen</tspan></text>
    <path
       style="fill:none;stroke:#000000;stroke-width:1px;stroke-linecap:butt;stroke-linejoin:miter;stroke-opacity:1"
       d="m -6.9930571,146.7057 c 0,0 74.7512881,18.18274 121.2183071,-32.32488 C 160.69226,63.873193 261.70752,-0.7765699 294.0324,-4.8171801"
       id="path3560" />
    <path
       style="fill:none;stroke:#000000;stroke-width:1px;stroke-linecap:butt;stroke-linejoin:miter;stroke-opacity:1"
       d="m 120.28616,-0.7765699 c 0,0 121.21831,56.5685429 266.68027,60.6091529 C 532.4284,63.873193 1569.6629,43.710385 1605.6194,78.03545"
       id="path3562" />
  </g>
</svg>
