<?xml version="1.0" encoding="UTF-8" standalone="no"?>
<svg
   xmlns:dc="http://purl.org/dc/elements/1.1/"
   xmlns:cc="http://creativecommons.org/ns#"
   xmlns:rdf="http://www.w3.org/1999/02/22-rdf-syntax-ns#"
   xmlns:svg="http://www.w3.org/2000/svg"
   xmlns="http://www.w3.org/2000/svg"
   xmlns:sodipodi="http://sodipodi.sourceforge.net/DTD/sodipodi-0.dtd"
   xmlns:inkscape="http://www.inkscape.org/namespaces/inkscape"
   width="448.25485"
   height="680.27911"
   viewBox="0 0 448.25486 680.27913"
   version="1.1"
   id="SVGRoot"
   sodipodi:docname="top_layer_mobile_large.svg"
   inkscape:version="1.0.2-2 (e86c870879, 2021-01-15)">
  <defs
     id="defs1439" />
  <sodipodi:namedview
     id="base"
     pagecolor="#ffffff"
     bordercolor="#666666"
     borderopacity="1.0"
     inkscape:pageopacity="0.0"
     inkscape:pageshadow="2"
     inkscape:zoom="0.7"
     inkscape:cx="324.46829"
     inkscape:cy="324.96531"
     inkscape:document-units="px"
     inkscape:current-layer="layer1"
     inkscape:document-rotation="0"
     showgrid="false"
     inkscape:window-width="1366"
     inkscape:window-height="705"
     inkscape:window-x="-8"
     inkscape:window-y="-8"
     inkscape:window-maximized="1" />
  <metadata
     id="metadata1442">
    <rdf:RDF>
      <cc:Work
         rdf:about="">
        <dc:format>image/svg+xml</dc:format>
        <dc:type
           rdf:resource="http://purl.org/dc/dcmitype/StillImage" />
        <dc:title />
      </cc:Work>
    </rdf:RDF>
  </metadata>
  <g
     inkscape:label="Layer 1"
     inkscape:groupmode="layer"
     id="layer1"
     transform="translate(-103.0602,101.31316)">
    <path
       id="rect1503"
       style="fill:#9c72f7;fill-opacity:1;stroke-width:1.35144"
       d="m 550.74665,250.77211 c -0.0689,0.0515 -0.11491,0.11311 -0.18803,0.16259 -0.38141,0.25927 -0.81619,0.49436 -1.30089,0.707 -0.96886,0.42533 -2.13755,0.75897 -3.4864,1.00908 -1.34889,0.2501 -2.87777,0.41694 -4.56521,0.50696 -1.68772,0.09 -3.53418,0.10306 -5.51947,0.0483 -1.98493,-0.0552 -4.10853,-0.17783 -6.35004,-0.36265 -2.2415,-0.18485 -4.60097,-0.43152 -7.0577,-0.73109 -4.91322,-0.59916 -10.21532,-1.41241 -15.74166,-2.37986 -5.52606,-0.96744 -11.27618,-2.08851 -17.08557,-3.3033 -5.80922,-1.21479 -11.67737,-2.52291 -17.4397,-3.86413 -5.76273,-1.34121 -11.4198,-2.71554 -16.80595,-4.06228 -5.38612,-1.34672 -10.50142,-2.6665 -15.18139,-3.89779 -2.33981,-0.61565 -4.70501,-1.13235 -7.08984,-1.55835 -2.38557,-0.42601 -4.791,-0.76104 -7.21222,-1.01389 -2.42193,-0.25286 -4.85925,-0.42326 -7.30848,-0.51946 -2.44889,-0.0962 -4.9092,-0.11802 -7.3766,-0.0744 -2.46759,0.0442 -4.94213,0.15364 -7.41923,0.3213 -2.4769,0.16764 -4.95683,0.39273 -7.43424,0.66758 -2.47776,0.27483 -4.95317,0.5993 -7.42255,0.96483 -2.46908,0.36556 -4.93187,0.7723 -7.38364,1.21206 -4.90389,0.87948 -9.7639,1.89116 -14.5448,2.96855 -4.78096,1.07738 -9.48297,2.22057 -14.06941,3.36392 -4.58646,1.14335 -9.05749,2.28655 -13.37789,3.36391 -4.3204,1.07739 -8.49007,2.08909 -12.47289,2.96855 -1.99139,0.43975 -4.03225,0.74763 -6.11936,0.93696 -2.08707,0.18927 -4.22044,0.26038 -6.39542,0.22604 -2.17504,-0.0346 -4.39197,-0.17472 -6.64708,-0.40595 -2.2551,-0.23121 -4.54826,-0.55395 -6.8757,-0.95521 -2.32746,-0.40125 -4.68898,-0.88106 -7.08101,-1.4256 -2.39201,-0.54453 -4.81461,-1.15323 -7.26339,-1.81423 -4.89761,-1.32198 -9.90069,-2.85077 -14.9788,-4.47782 -5.07808,-1.62707 -10.23112,-3.35266 -15.42745,-5.07042 -5.1963,-1.71775 -10.43595,-3.42725 -15.68828,-5.02133 -2.62615,-0.79705 -5.25567,-1.56543 -7.88416,-2.29137 -2.62851,-0.72591 -5.25621,-1.40936 -7.87928,-2.03737 -2.62303,-0.62802 -5.24111,-1.20031 -7.85093,-1.70362 -2.60986,-0.50328 -5.21149,-0.9372 -7.80033,-1.28901 -2.5889,-0.35177 -5.27097,-0.61068 -8.02474,-0.7859 -2.75371,-0.17522 -5.57918,-0.26741 -8.45426,-0.28664 -2.87511,-0.0193 -5.79981,0.0351 -8.7527,0.15102 -2.95285,0.11612 -5.93383,0.29436 -8.92092,0.5252 -2.98713,0.23087 -5.98019,0.51385 -8.95796,0.83884 -2.9778,0.32498 -5.94001,0.69234 -8.86488,1.09085 -5.84973,0.79702 -11.5503,1.72021 -16.92705,2.68765 -5.37684,0.96743 -10.43,1.97927 -14.98535,2.95221 -4.55533,0.97294 -8.61267,1.90683 -11.99805,2.72037 -5.77683,1.3882 -8.26318,2.08922 -9.26019,2.36351 v 51.06574 h 446.87109 z" />
    <path
       id="path1518"
       style="fill:#154340;stroke-width:1.35144"
       d="m 103.8756,137.01406 v 97.18398 c 0.99701,-0.27428 3.48356,-0.97531 9.26039,-2.3635 3.38537,-0.81355 7.44264,-1.74743 11.99797,-2.72037 4.55534,-0.97293 9.60846,-1.98476 14.98529,-2.9522 5.37677,-0.96743 11.07745,-1.89062 16.92719,-2.68766 2.92487,-0.39849 5.8866,-0.76584 8.86441,-1.09084 2.97777,-0.32498 5.97101,-0.60796 8.95814,-0.83882 2.98708,-0.23085 5.96789,-0.40909 8.92074,-0.52521 2.95289,-0.11614 5.87774,-0.17028 8.75284,-0.15102 2.87508,0.0194 5.70065,0.11143 8.45437,0.28663 2.75376,0.17523 5.43599,0.43413 8.02491,0.78592 2.58882,0.35179 5.19016,0.78572 7.80002,1.28899 2.60983,0.50332 5.22793,1.07562 7.85096,1.70362 2.62307,0.62799 5.25062,1.31145 7.87912,2.03738 2.62849,0.72592 5.2584,1.49431 7.88455,2.29135 5.25233,1.59408 10.49207,3.30358 15.68836,5.02133 5.19634,1.71776 10.34921,3.44334 15.42728,5.07041 5.07813,1.62704 10.08118,3.15584 14.97878,4.47781 2.44879,0.661 4.87125,1.26971 7.26325,1.81423 2.39204,0.54454 4.75379,1.02435 7.08125,1.42558 2.32745,0.40128 4.62032,0.72401 6.87541,0.95523 2.25511,0.23122 4.47239,0.37158 6.64744,0.40595 2.17495,0.0345 4.30841,-0.0369 6.39548,-0.22605 2.08711,-0.18933 4.12785,-0.4972 6.11924,-0.93696 3.98282,-0.87948 8.15261,-1.89117 12.47301,-2.96856 4.32041,-1.07734 8.79117,-2.22054 13.37762,-3.36389 4.58645,-1.14334 9.28835,-2.28654 14.06932,-3.3639 4.7809,-1.0774 9.64103,-2.08908 14.5449,-2.96857 2.45177,-0.43975 4.91441,-0.84648 7.3835,-1.21204 2.46938,-0.36553 4.94471,-0.68999 7.4225,-0.96482 2.4774,-0.27485 4.95753,-0.49995 7.43443,-0.6676 2.4771,-0.16765 4.95164,-0.27731 7.41923,-0.32129 2.4674,-0.0442 4.92757,-0.0222 7.37647,0.0744 2.44923,0.0962 4.88687,0.26659 7.3088,0.51945 2.42122,0.25285 4.82621,0.58788 7.21179,1.01388 2.38482,0.42601 4.7501,0.9427 7.08991,1.55835 4.67997,1.23129 9.79525,2.55108 15.18137,3.89778 5.38614,1.34673 11.04363,2.72107 16.80637,4.06228 5.76232,1.34121 11.63036,2.64934 17.43958,3.86412 5.80939,1.2148 11.55929,2.33587 17.08535,3.3033 5.52633,0.96744 10.82877,1.78069 15.74199,2.37985 2.45672,0.29958 4.81598,0.54624 7.05748,0.73109 2.24151,0.18481 4.3649,0.30767 6.34977,0.36264 1.98534,0.0552 3.83189,0.0422 5.51962,-0.0483 1.68743,-0.09 3.21636,-0.25685 4.56521,-0.50695 1.34889,-0.25012 2.51788,-0.58376 3.48673,-1.00908 0.4847,-0.21263 0.91914,-0.44774 1.30054,-0.707 0.0731,-0.0498 0.11899,-0.11135 0.18797,-0.16258 V 137.01407 Z" />
    <path
       style="fill:none;stroke:#000000;stroke-width:1.57084;stroke-linecap:butt;stroke-linejoin:miter;stroke-miterlimit:4;stroke-dasharray:none;stroke-opacity:1"
       d="m 103.3123,234.44657 c 0,0 65.31806,-18.29337 106.73932,-12.66463 41.42118,5.62871 86.02859,32.36518 117.8911,25.32928 31.86244,-7.0359 75.67325,-22.51494 113.11197,-12.66465 37.43816,9.85027 100.91121,25.6811 109.67354,15.8308"
       id="path1505"
       sodipodi:nodetypes="csscc" />
    <rect
       style="fill:#9c72f7;fill-opacity:1;stroke-width:0.739485;stroke-miterlimit:4;stroke-dasharray:none"
       id="rect3445"
       width="446.91656"
       height="27.840765"
       x="103.87556"
       y="284.27847" />
    <rect
       style="fill:#9c72f7;fill-opacity:1;stroke-width:2.14697;stroke-miterlimit:4;stroke-dasharray:none"
       id="rect3529"
       width="446.9165"
       height="268.60568"
       x="103.87556"
       y="310.36029" />
    <rect
       style="fill:#154340;fill-opacity:1;stroke-width:1.82997;stroke-miterlimit:4;stroke-dasharray:none"
       id="rect3531"
       width="446.89038"
       height="243.64117"
       x="103.8756"
       y="-101.31316" />
    <text
       xml:space="preserve"
       style="font-style:normal;font-weight:normal;font-size:91.6255px;line-height:1.25;font-family:sans-serif;fill:#000000;fill-opacity:1;stroke:none;stroke-width:1.07373"
       x="225.5538"
       y="241.92065"
       id="text3384"
       transform="scale(0.92914983,1.0762527)"><tspan
         sodipodi:role="line"
         id="tspan3382"
         x="225.5538"
         y="241.92065"
         style="font-size:91.6255px;fill:#ffffff;fill-opacity:1;stroke-width:1.07373">ängen</tspan></text>
    <path
       style="fill:none;stroke:#000000;stroke-width:1.17639px;stroke-linecap:butt;stroke-linejoin:miter;stroke-opacity:1"
       d="m 103.13415,171.49908 c 0,0 154.16598,4.06696 206.24909,-40.6696 52.08312,-44.736561 -14.58329,-114.552709 45.83314,-153.188826 60.41639,-38.636125 156.24932,-74.560932 195.83247,-77.272243"
       id="path2017" />
    <path
       style="fill:none;stroke:#000000;stroke-width:0.785417px;stroke-linecap:butt;stroke-linejoin:miter;stroke-opacity:1"
       d="m 103.226,98.014317 c 0,0 66.33848,-30.895404 167.35389,-10.855142 101.01542,20.040265 122.12312,86.841135 180.16929,60.955795 58.04617,-25.88534 98.75388,-29.22538 98.75388,-29.22538"
       id="path2019" />
  </g>
</svg>
