<?xml version="1.0" encoding="UTF-8" standalone="no"?>
<svg
   xmlns:dc="http://purl.org/dc/elements/1.1/"
   xmlns:cc="http://creativecommons.org/ns#"
   xmlns:rdf="http://www.w3.org/1999/02/22-rdf-syntax-ns#"
   xmlns:svg="http://www.w3.org/2000/svg"
   xmlns="http://www.w3.org/2000/svg"
   xmlns:sodipodi="http://sodipodi.sourceforge.net/DTD/sodipodi-0.dtd"
   xmlns:inkscape="http://www.inkscape.org/namespaces/inkscape"
   width="448.41022"
   height="898.10284"
   viewBox="0 0 448.41022 898.10286"
   version="1.1"
   id="SVGRoot"
   sodipodi:docname="top_layer_mobile_large.svg"
   inkscape:version="1.0.2-2 (e86c870879, 2021-01-15)">
  <defs
     id="defs1439" />
  <sodipodi:namedview
     id="base"
     pagecolor="#ffffff"
     bordercolor="#666666"
     borderopacity="1.0"
     inkscape:pageopacity="0.0"
     inkscape:pageshadow="2"
     inkscape:zoom="0.7"
     inkscape:cx="324.51451"
     inkscape:cy="428.5033"
     inkscape:document-units="px"
     inkscape:current-layer="layer1"
     inkscape:document-rotation="0"
     showgrid="false"
     inkscape:window-width="1366"
     inkscape:window-height="705"
     inkscape:window-x="-8"
     inkscape:window-y="-8"
     inkscape:window-maximized="1" />
  <metadata
     id="metadata1442">
    <rdf:RDF>
      <cc:Work
         rdf:about="">
        <dc:format>image/svg+xml</dc:format>
        <dc:type
           rdf:resource="http://purl.org/dc/dcmitype/StillImage" />
        <dc:title />
      </cc:Work>
    </rdf:RDF>
  </metadata>
  <g
     inkscape:label="Layer 1"
     inkscape:groupmode="layer"
     id="layer1"
     transform="translate(-103.01398,319.13687)">
    <path
       id="rect1503"
       style="fill:#9c72f7;fill-opacity:1;stroke-width:1.48643"
       d="m 550.74665,181.93421 c -0.0689,0.0623 -0.11491,0.13683 -0.18803,0.19669 -0.38141,0.31365 -0.81619,0.59805 -1.30089,0.85529 -0.96886,0.51454 -2.13755,0.91816 -3.4864,1.22073 -1.34889,0.30256 -2.87777,0.50439 -4.56521,0.6133 -1.68772,0.10886 -3.53418,0.12467 -5.51947,0.0584 -1.98493,-0.0668 -4.10853,-0.21512 -6.35004,-0.43871 -2.2415,-0.22362 -4.60097,-0.52203 -7.0577,-0.88444 -4.91322,-0.72483 -10.21532,-1.70866 -15.74166,-2.87902 -5.52606,-1.17036 -11.27618,-2.52657 -17.08557,-3.99617 -5.80922,-1.46959 -11.67737,-3.05208 -17.4397,-4.67462 -5.76273,-1.62252 -11.4198,-3.28512 -16.80595,-4.91433 -5.38612,-1.62919 -10.50142,-3.22579 -15.18139,-4.71534 -2.33981,-0.74478 -4.70501,-1.36986 -7.08984,-1.88522 -2.38557,-0.51536 -4.791,-0.92066 -7.21222,-1.22655 -2.42193,-0.30589 -4.85925,-0.51203 -7.30848,-0.62841 -2.44889,-0.11636 -4.9092,-0.14278 -7.3766,-0.09 -2.46759,0.0535 -4.94213,0.18587 -7.41923,0.3887 -2.4769,0.2028 -4.95683,0.4751 -7.43424,0.8076 -2.47776,0.33248 -4.95317,0.725 -7.42255,1.1672 -2.46908,0.44224 -4.93187,0.93429 -7.38364,1.46629 -4.90389,1.06395 -9.7639,2.28782 -14.5448,3.5912 -4.78096,1.30335 -9.48297,2.68633 -14.06941,4.06949 -4.58646,1.38316 -9.05749,2.76615 -13.37789,4.06948 -4.3204,1.30337 -8.49007,2.52727 -12.47289,3.5912 -1.99139,0.53199 -4.03225,0.90444 -6.11936,1.13348 -2.08707,0.22897 -4.22044,0.315 -6.39542,0.27345 -2.17504,-0.0418 -4.39197,-0.21136 -6.64708,-0.49109 -2.2551,-0.27971 -4.54826,-0.67014 -6.8757,-1.15557 -2.32746,-0.4854 -4.68898,-1.06586 -7.08101,-1.72461 -2.39201,-0.65874 -4.81461,-1.39512 -7.26339,-2.19476 -4.89761,-1.59926 -9.90069,-3.44871 -14.9788,-5.41704 -5.07808,-1.96834 -10.23112,-4.05587 -15.42745,-6.13392 -5.1963,-2.07805 -10.43595,-4.14611 -15.68828,-6.07455 -2.62615,-0.96422 -5.25567,-1.89377 -7.88416,-2.77197 -2.62851,-0.87817 -5.25621,-1.70498 -7.87928,-2.46471 -2.62303,-0.75974 -5.24111,-1.45207 -7.85093,-2.06095 -2.60986,-0.60884 -5.21149,-1.13377 -7.80033,-1.55937 -2.5889,-0.42556 -5.27097,-0.73878 -8.02474,-0.95075 -2.75371,-0.21197 -5.57918,-0.3235 -8.45426,-0.34676 -2.87511,-0.0234 -5.79981,0.0425 -8.7527,0.1827 -2.95285,0.14047 -5.93383,0.3561 -8.92092,0.63536 -2.98713,0.27929 -5.98019,0.62162 -8.95796,1.01478 -2.9778,0.39315 -5.94001,0.83756 -8.86488,1.31965 -5.84973,0.9642 -11.5503,2.08103 -16.92705,3.25138 -5.37684,1.17035 -10.43,2.39442 -14.98535,3.57143 -4.55533,1.17701 -8.61267,2.30679 -11.99805,3.29096 -5.77683,1.67937 -8.26318,2.52743 -9.26019,2.85925 v 61.77667 h 446.87109 z" />
    <path
       id="path1518"
       style="fill:#154340;stroke-width:1.48643"
       d="M 103.8756,44.315672 V 161.88377 c 0.99701,-0.33182 3.48356,-1.17989 9.26039,-2.85925 3.38537,-0.98418 7.44264,-2.11394 11.99797,-3.29095 4.55534,-1.17701 9.60846,-2.40107 14.98529,-3.57142 5.37677,-1.17035 11.07745,-2.28718 16.92719,-3.25139 2.92487,-0.48208 5.8866,-0.92648 8.86441,-1.31965 2.97777,-0.39314 5.97101,-0.73547 8.95814,-1.01476 2.98708,-0.27926 5.96789,-0.49489 8.92074,-0.63537 2.95289,-0.1405 5.87774,-0.20599 8.75284,-0.18269 2.87508,0.0234 5.70065,0.1348 8.45437,0.34675 2.75376,0.21198 5.43599,0.52519 8.02491,0.95076 2.58882,0.42558 5.19016,0.95053 7.80002,1.55936 2.60983,0.60888 5.22793,1.30122 7.85096,2.06095 2.62307,0.75971 5.25062,1.58652 7.87912,2.46471 2.62849,0.87818 5.2584,1.80774 7.88455,2.77196 5.25233,1.92843 10.49207,3.9965 15.68836,6.07454 5.19634,2.07805 10.34921,4.16557 15.42728,6.13391 5.07813,1.96831 10.08118,3.81778 14.97878,5.41702 2.44879,0.79965 4.87125,1.53603 7.26325,2.19477 2.39204,0.65875 4.75379,1.2392 7.08125,1.72459 2.32745,0.48544 4.62032,0.87587 6.87541,1.15558 2.25511,0.27972 4.47239,0.44952 6.64744,0.4911 2.17495,0.0417 4.30841,-0.0447 6.39548,-0.27346 2.08711,-0.22904 4.12785,-0.60149 6.11924,-1.13349 3.98282,-1.06394 8.15261,-2.28783 12.47301,-3.5912 4.32041,-1.30331 8.79117,-2.6863 13.37762,-4.06946 4.58645,-1.38315 9.28835,-2.76614 14.06932,-4.06947 4.7809,-1.30338 9.64103,-2.52726 14.5449,-3.59122 2.45177,-0.53199 4.91441,-1.02403 7.3835,-1.46627 2.46938,-0.4422 4.94471,-0.83471 7.4225,-1.16719 2.4774,-0.3325 4.95753,-0.60481 7.43443,-0.80762 2.4771,-0.20282 4.95164,-0.33548 7.41923,-0.38868 2.4674,-0.0535 4.92757,-0.0269 7.37647,0.09 2.44923,0.11637 4.88687,0.32251 7.3088,0.6284 2.42122,0.30589 4.82621,0.71119 7.21179,1.22655 2.38482,0.51536 4.7501,1.14043 7.08991,1.8852 4.67997,1.48956 9.79525,3.08617 15.18137,4.71533 5.38614,1.62921 11.04363,3.29181 16.80637,4.91434 5.76232,1.62253 11.63036,3.20503 17.43958,4.67461 5.80939,1.4696 11.55929,2.82581 17.08535,3.99616 5.52633,1.17036 10.82877,2.15419 15.74199,2.87902 2.45672,0.36241 4.81598,0.66081 7.05748,0.88443 2.24151,0.22358 4.3649,0.37221 6.34977,0.43871 1.98534,0.0668 3.83189,0.051 5.51962,-0.0584 1.68743,-0.10889 3.21636,-0.31072 4.56521,-0.61328 1.34889,-0.30258 2.51788,-0.7062 3.48673,-1.22073 0.4847,-0.25723 0.91914,-0.54165 1.30054,-0.85529 0.0731,-0.0602 0.11899,-0.13471 0.18797,-0.19669 V 44.315682 Z" />
    <path
       style="fill:none;stroke:#000000;stroke-width:1.72774;stroke-linecap:butt;stroke-linejoin:miter;stroke-miterlimit:4;stroke-dasharray:none;stroke-opacity:1"
       d="m 103.3123,162.18442 c 0,0 65.31806,-22.13036 106.73932,-15.32101 41.42118,6.80933 86.02859,39.15371 117.8911,30.64204 31.86244,-8.51166 75.67325,-27.23739 113.11197,-15.32103 37.43816,11.91634 100.91121,31.06765 109.67354,19.15128"
       id="path1505"
       sodipodi:nodetypes="csscc" />
    <rect
       style="fill:#9c72f7;fill-opacity:1;stroke-width:0.813349;stroke-miterlimit:4;stroke-dasharray:none"
       id="rect3445"
       width="446.91656"
       height="33.680302"
       x="103.87556"
       y="222.46846" />
    <rect
       style="fill:#9c72f7;fill-opacity:1;stroke-width:2.36142;stroke-miterlimit:4;stroke-dasharray:none"
       id="rect3529"
       width="446.9165"
       height="324.9451"
       x="103.87556"
       y="254.02086" />
    <rect
       style="fill:#154340;fill-opacity:1;stroke-width:2.25475;stroke-miterlimit:4;stroke-dasharray:none"
       id="rect3531"
       width="446.89038"
       height="369.8811"
       x="103.8756"
       y="-319.13687" />
    <text
       xml:space="preserve"
       style="font-style:normal;font-weight:normal;font-size:91.6255px;line-height:1.25;font-family:sans-serif;fill:#000000;fill-opacity:1;stroke:none;stroke-width:1.07373"
       x="228.6288"
       y="176.88016"
       id="text3384"
       transform="scale(0.92914985,1.0762527)"><tspan
         sodipodi:role="line"
         id="tspan3382"
         x="228.6288"
         y="176.88016"
         style="font-size:91.6255px;fill:#ffffff;fill-opacity:1;stroke-width:1.07373">ängen</tspan></text>
    <path
       style="fill:none;stroke:#000000;stroke-width:0.863869px;stroke-linecap:butt;stroke-linejoin:miter;stroke-opacity:1"
       d="m 103.226,86.029243 c 0,0 55.78463,6.060916 74.63079,-60.609152 18.84616,-66.670068 -5.27693,-170.715781 16.58462,-228.294471 21.86154,-57.5787 56.53848,-111.11678 70.86156,-115.15739"
       id="path2017" />
    <path
       style="fill:none;stroke:#000000;stroke-width:0.863869px;stroke-linecap:butt;stroke-linejoin:miter;stroke-opacity:1"
       d="m 103.226,-2.8641805 c 0,0 66.33848,-37.3756445 167.35389,-13.1319835 101.01542,24.243662 122.12312,105.055865 180.16929,73.741136 58.04617,-31.314729 98.75388,-35.355339 98.75388,-35.355339"
       id="path2019" />
    <path
       style="fill:none;stroke:#000000;stroke-width:0.863869px;stroke-linecap:butt;stroke-linejoin:miter;stroke-opacity:1"
       d="m 549.50306,130.47596 c 0,0 -57.29233,-5.05076 -62.56925,-57.5787 -5.27693,-52.527932 -12.06155,-176.77669 -50.50772,-183.84776 -38.44615,-7.07107 -254.04622,3.03046 -274.40007,-54.54824 -20.35385,-57.57869 -3.01539,-153.54318 -3.01539,-153.54318"
       id="path2021" />
  </g>
</svg>
