<?xml version="1.0" encoding="UTF-8" standalone="no"?>
<svg
   xmlns:dc="http://purl.org/dc/elements/1.1/"
   xmlns:cc="http://creativecommons.org/ns#"
   xmlns:rdf="http://www.w3.org/1999/02/22-rdf-syntax-ns#"
   xmlns:svg="http://www.w3.org/2000/svg"
   xmlns="http://www.w3.org/2000/svg"
   xmlns:sodipodi="http://sodipodi.sourceforge.net/DTD/sodipodi-0.dtd"
   xmlns:inkscape="http://www.inkscape.org/namespaces/inkscape"
   width="599.9881"
   height="298.55457"
   viewBox="0 0 599.9881 298.55457"
   version="1.1"
   id="SVGRoot"
   sodipodi:docname="top_layer_mobile.svg"
   inkscape:version="1.0.2-2 (e86c870879, 2021-01-15)">
  <defs
     id="defs1439" />
  <sodipodi:namedview
     id="base"
     pagecolor="#ffffff"
     bordercolor="#666666"
     borderopacity="1.0"
     inkscape:pageopacity="0.0"
     inkscape:pageshadow="2"
     inkscape:zoom="0.7"
     inkscape:cx="49.30249"
     inkscape:cy="129.43124"
     inkscape:document-units="px"
     inkscape:current-layer="layer1"
     inkscape:document-rotation="0"
     showgrid="false"
     inkscape:window-width="1366"
     inkscape:window-height="705"
     inkscape:window-x="-8"
     inkscape:window-y="-8"
     inkscape:window-maximized="1" />
  <metadata
     id="metadata1442">
    <rdf:RDF>
      <cc:Work
         rdf:about="">
        <dc:format>image/svg+xml</dc:format>
        <dc:type
           rdf:resource="http://purl.org/dc/dcmitype/StillImage" />
        <dc:title />
      </cc:Work>
    </rdf:RDF>
  </metadata>
  <g
     inkscape:label="Layer 1"
     inkscape:groupmode="layer"
     id="layer1"
     transform="translate(-103.226,3.874333)">
    <path
       id="rect1503"
       style="fill:#9c72f7;fill-opacity:1;stroke-width:1.72066"
       d="m 702.90273,181.93421 c -0.0923,0.0623 -0.15399,0.13683 -0.25197,0.19669 -0.51108,0.31365 -1.09369,0.59805 -1.74318,0.85529 -1.29827,0.51454 -2.86432,0.91816 -4.67177,1.22073 -1.80751,0.30256 -3.85621,0.50439 -6.11737,0.6133 -2.26155,0.10886 -4.7358,0.12467 -7.39609,0.0584 -2.65979,-0.0668 -5.50542,-0.21512 -8.50904,-0.43871 -3.0036,-0.22362 -6.16529,-0.52203 -9.4573,-0.88444 -6.5837,-0.72483 -13.6885,-1.70866 -21.09379,-2.87902 -7.40491,-1.17036 -15.11006,-2.52657 -22.89462,-3.99617 -7.78435,-1.46959 -15.64766,-3.05208 -23.36916,-4.67462 -7.72205,-1.62252 -15.30252,-3.28512 -22.51995,-4.91433 -7.21738,-1.62919 -14.07187,-3.22579 -20.34302,-4.71534 -3.13535,-0.74478 -6.30471,-1.36986 -9.50038,-1.88522 -3.19666,-0.51536 -6.41993,-0.92066 -9.66436,-1.22655 -3.24538,-0.30589 -6.51138,-0.51203 -9.79334,-0.62841 -3.28151,-0.11636 -6.57832,-0.14278 -9.88463,-0.09 -3.30657,0.0535 -6.62244,0.18587 -9.94175,0.3887 -3.31905,0.2028 -6.64215,0.4751 -9.96187,0.8076 -3.32019,0.33248 -6.63723,0.725 -9.9462,1.1672 -3.30856,0.44224 -6.6087,0.93429 -9.89406,1.46629 -6.5712,1.06395 -13.08361,2.28782 -19.49,3.5912 -6.40648,1.30335 -12.70716,2.68633 -18.85299,4.06949 -6.14584,1.38316 -12.13701,2.76615 -17.92634,4.06948 -5.78933,1.30337 -11.37668,2.52727 -16.71365,3.5912 -2.66845,0.53199 -5.4032,0.90444 -8.19992,1.13348 -2.79667,0.22897 -5.65538,0.315 -8.56985,0.27345 -2.91455,-0.0418 -5.88523,-0.21136 -8.90708,-0.49109 -3.02182,-0.27971 -6.09465,-0.67014 -9.21342,-1.15557 -3.11879,-0.4854 -6.28322,-1.06586 -9.48854,-1.72461 -3.20529,-0.65874 -6.45156,-1.39512 -9.73293,-2.19476 -6.56278,-1.59926 -13.2669,-3.44871 -20.07156,-5.41704 -6.80461,-1.96834 -13.70967,-4.05587 -20.67275,-6.13392 -6.96303,-2.07805 -13.98415,-4.14611 -21.02226,-6.07455 -3.51903,-0.96422 -7.04259,-1.89377 -10.56476,-2.77197 -3.5222,-0.87817 -7.04331,-1.70498 -10.55822,-2.46471 -3.51485,-0.75974 -7.02307,-1.45207 -10.52023,-2.06095 -3.4972,-0.60884 -6.98338,-1.13377 -10.45242,-1.55937 -3.46912,-0.42556 -7.06309,-0.73878 -10.75313,-0.95075 -3.68997,-0.21197 -7.4761,-0.3235 -11.3287,-0.34676 -3.85263,-0.0234 -7.77173,0.0425 -11.72859,0.1827 -3.95682,0.14047 -7.95132,0.3561 -11.95402,0.63536 -4.00274,0.27929 -8.01344,0.62162 -12.00364,1.01478 -3.99025,0.39315 -7.95961,0.83756 -11.87893,1.31965 -7.83862,0.9642 -15.47737,2.08103 -22.68221,3.25138 -7.20495,1.17035 -13.97618,2.39442 -20.08033,3.57143 -6.10414,1.17701 -11.54096,2.30679 -16.07737,3.29096 -7.74093,1.67937 -11.07264,2.52743 -12.40863,2.85925 v 61.77667 h 598.80632 z" />
    <path
       id="path1518"
       style="fill:#154340;stroke-width:1.72066"
       d="M 104.09646,44.315672 V 161.88377 c 1.33599,-0.33182 4.66797,-1.17989 12.4089,-2.85925 4.5364,-0.98418 9.97313,-2.11394 16.07726,-3.29095 6.10415,-1.17701 12.87532,-2.40107 20.08026,-3.57142 7.20486,-1.17035 14.84376,-2.28718 22.68239,-3.25139 3.91932,-0.48208 7.88804,-0.92648 11.8783,-1.31965 3.9902,-0.39314 8.00114,-0.73547 12.00388,-1.01476 4.00269,-0.27926 7.99697,-0.49489 11.95378,-0.63537 3.95686,-0.1405 7.87616,-0.20599 11.72878,-0.18269 3.85261,0.0234 7.63886,0.1348 11.32884,0.34675 3.69004,0.21198 7.28422,0.52519 10.75336,0.95076 3.46902,0.42558 6.95481,0.95053 10.45202,1.55936 3.49716,0.60888 7.00541,1.30122 10.52027,2.06095 3.51491,0.75971 7.03581,1.58652 10.558,2.46471 3.52217,0.87818 7.04624,1.80774 10.56528,2.77196 7.03811,1.92843 14.05935,3.9965 21.02237,6.07454 6.96308,2.07805 13.86792,4.16557 20.67252,6.13391 6.80469,1.96831 13.50876,3.81778 20.07154,5.41702 3.28137,0.79965 6.52746,1.53603 9.73274,2.19477 3.20533,0.65875 6.37006,1.2392 9.48886,1.72459 3.11877,0.48544 6.19121,0.87587 9.21303,1.15558 3.02184,0.27972 5.99299,0.44952 8.90755,0.4911 2.91444,0.0417 5.77327,-0.0447 8.56994,-0.27346 2.79672,-0.22904 5.53131,-0.60149 8.19977,-1.13349 5.33696,-1.06394 10.92447,-2.28783 16.7138,-3.5912 5.78934,-1.30331 11.78015,-2.6863 17.92598,-4.06946 6.14584,-1.38315 12.44637,-2.76614 18.85286,-4.06947 6.4064,-1.30338 12.91896,-2.52726 19.49014,-3.59122 3.28536,-0.53199 6.5853,-1.02403 9.89387,-1.46627 3.30897,-0.4422 6.6259,-0.83471 9.94614,-1.16719 3.31971,-0.3325 6.64307,-0.60481 9.96212,-0.80762 3.31931,-0.20282 6.63518,-0.33548 9.94175,-0.38868 3.30631,-0.0535 6.60293,-0.0269 9.88445,0.09 3.28196,0.11637 6.5484,0.32251 9.79378,0.6284 3.24443,0.30589 6.46711,0.71119 9.66378,1.22655 3.19566,0.51536 6.36513,1.14043 9.50047,1.8852 6.27115,1.48956 13.12561,3.08617 20.343,4.71533 7.21742,1.62921 14.79844,3.29181 22.5205,4.91434 7.7215,1.62253 15.58466,3.20503 23.369,4.67461 7.78457,1.4696 15.48942,2.82581 22.89433,3.99616 7.40528,1.17036 14.51054,2.15419 21.09424,2.87902 3.292,0.36241 6.4534,0.66081 9.457,0.88443 3.00362,0.22358 5.84896,0.37221 8.50869,0.43871 2.66035,0.0668 5.13472,0.051 7.39628,-0.0584 2.26115,-0.10889 4.30991,-0.31072 6.11736,-0.61328 1.80751,-0.30258 3.37396,-0.7062 4.67222,-1.22073 0.6495,-0.25723 1.23164,-0.54165 1.74272,-0.85529 0.098,-0.0602 0.15945,-0.13471 0.25187,-0.19669 V 44.315682 Z" />
    <path
       style="fill:none;stroke:#000000;stroke-width:1;stroke-linecap:butt;stroke-linejoin:miter;stroke-miterlimit:4;stroke-dasharray:none;stroke-opacity:1"
       d="m 103.34164,162.18442 c 0,0 87.52606,-22.13036 143.03046,-15.32101 55.5043,6.80933 115.27813,39.15371 157.97383,30.64204 42.6956,-8.51166 101.40199,-27.23739 151.5698,-15.32103 50.16706,11.91634 135.22081,31.06765 146.96231,19.15128"
       id="path1505"
       sodipodi:nodetypes="csscc" />
    <rect
       style="fill:#9c72f7;fill-opacity:1;stroke-width:0.941519;stroke-miterlimit:4;stroke-dasharray:none"
       id="rect3445"
       width="598.86725"
       height="33.680302"
       x="104.09641"
       y="222.46846" />
    <rect
       style="fill:#9c72f7;fill-opacity:1;stroke-width:0.966942;stroke-miterlimit:4;stroke-dasharray:none"
       id="rect3529"
       width="598.86719"
       height="40.659378"
       x="104.09641"
       y="254.02086" />
    <rect
       style="fill:#154340;fill-opacity:1;stroke-width:1.00271;stroke-miterlimit:4;stroke-dasharray:none"
       id="rect3531"
       width="598.83215"
       height="54.589897"
       x="104.09646"
       y="-3.8456514" />
    <text
       xml:space="preserve"
       style="font-style:normal;font-weight:normal;font-size:85.1416px;line-height:1.25;font-family:sans-serif;fill:#000000;fill-opacity:1;stroke:none;stroke-width:0.99775"
       x="324.05719"
       y="174.49684"
       id="text3384"
       transform="scale(0.92021887,1.086698)"><tspan
         sodipodi:role="line"
         id="tspan3382"
         x="324.05719"
         y="174.49684"
         style="font-size:85.1416px;fill:#ffffff;fill-opacity:1;stroke-width:0.99775">ängen</tspan></text>
    <path
       style="fill:none;stroke:#000000;stroke-width:1;stroke-linecap:butt;stroke-linejoin:miter;stroke-miterlimit:4;stroke-dasharray:none;stroke-opacity:1"
       d="m 96.907379,115.21463 c 0,0 36.602121,2.86674 87.534161,-31.592479 C 235.37361,49.162923 325.51178,0.72400514 346.76648,-5.0156426"
       id="path3560" />
  </g>
</svg>
