<?xml version="1.0" encoding="UTF-8" standalone="no"?>
<svg
   xmlns:dc="http://purl.org/dc/elements/1.1/"
   xmlns:cc="http://creativecommons.org/ns#"
   xmlns:rdf="http://www.w3.org/1999/02/22-rdf-syntax-ns#"
   xmlns:svg="http://www.w3.org/2000/svg"
   xmlns="http://www.w3.org/2000/svg"
   xmlns:sodipodi="http://sodipodi.sourceforge.net/DTD/sodipodi-0.dtd"
   xmlns:inkscape="http://www.inkscape.org/namespaces/inkscape"
   width="1603.9177"
   height="301.2822"
   viewBox="0 0 1603.9177 301.2822"
   version="1.1"
   id="SVGRoot"
   sodipodi:docname="aboutToFooter.svg"
   inkscape:version="1.0.2-2 (e86c870879, 2021-01-15)">
  <defs
     id="defs2183" />
  <sodipodi:namedview
     id="base"
     pagecolor="#ffffff"
     bordercolor="#666666"
     borderopacity="1.0"
     inkscape:pageopacity="0.0"
     inkscape:pageshadow="2"
     inkscape:zoom="0.35"
     inkscape:cx="1375.7361"
     inkscape:cy="180.1307"
     inkscape:document-units="px"
     inkscape:current-layer="layer1"
     inkscape:document-rotation="0"
     showgrid="false"
     inkscape:window-width="1366"
     inkscape:window-height="705"
     inkscape:window-x="-8"
     inkscape:window-y="-8"
     inkscape:window-maximized="1" />
  <metadata
     id="metadata2186">
    <rdf:RDF>
      <cc:Work
         rdf:about="">
        <dc:format>image/svg+xml</dc:format>
        <dc:type
           rdf:resource="http://purl.org/dc/dcmitype/StillImage" />
        <dc:title></dc:title>
      </cc:Work>
    </rdf:RDF>
  </metadata>
  <g
     inkscape:label="Layer 1"
     inkscape:groupmode="layer"
     id="layer1"
     transform="translate(-0.89822272,-0.78748571)">
    <rect
       style="fill:#000000;fill-opacity:1;stroke-width:3.4418;stroke-miterlimit:4;stroke-dasharray:none"
       id="rect3601"
       width="1602.7617"
       height="177.17041"
       x="1.9588829"
       y="123.83859" />
    <path
       id="rect2761-3"
       style="fill:#113734;fill-opacity:1;stroke-width:2"
       d="M 1.9586629,300.78749 V 0.78748571 H 1604.816 V 124.58045 c -1.289,0.18671 -2.0276,0.247 -3.5722,0.49415 -4.4643,0.71428 -10.0441,1.69587 -17.0196,3.03515 -6.9754,1.33929 -15.346,3.03488 -25.3906,5.17774 -10.0446,2.14285 -21.7637,4.73242 -35.4355,7.85742 -13.6719,3.125 -29.2972,6.78655 -47.1543,11.07226 -8.9286,2.14286 -18.381,4.12905 -28.2813,5.97266 -9.9002,1.84361 -20.2478,3.54436 -30.9648,5.11523 -10.7171,1.57087 -21.8046,3.0113 -33.1836,4.33594 -11.3791,1.32464 -23.0494,2.53376 -34.9356,3.63867 -11.8861,1.10491 -23.9881,2.10589 -36.2265,3.01758 -12.2385,0.91169 -24.613,1.73354 -37.0489,2.47852 -24.8716,1.48995 -49.9846,2.67215 -74.7168,3.65429 -24.7321,0.98215 -49.0837,1.76479 -72.4375,2.45118 -23.3538,0.68638 -45.7087,1.27818 -66.4453,1.88086 -20.7366,0.60267 -39.8557,1.21623 -56.7363,1.94726 -8.44026,0.36551 -16.32036,0.75991 -23.56436,1.19727 -7.244,0.43736 -13.8513,0.91741 -19.7442,1.45312 -11.7857,1.07143 -27.7238,2.2327 -46.9648,3.41016 -19.2411,1.17745 -41.7852,2.37137 -66.7852,3.50976 -25,1.1384 -52.4551,2.21959 -81.5176,3.17383 -29.0625,0.95424 -59.7315,1.78125 -91.1601,2.40625 -31.4286,0.625 -63.6166,1.04855 -95.7149,1.19922 -32.0982,0.15067 -64.1082,0.0273 -95.1797,-0.44141 -15.5357,-0.23437 -30.8359,-0.55426 -45.79682,-0.9707 -14.96094,-0.41643 -29.58175,-0.92829 -43.75586,-1.54492 -14.17411,-0.61663 -27.90095,-1.33887 -41.07617,-2.17383 -13.17523,-0.83496 -25.79939,-1.78209 -37.76367,-2.85351 -5.98215,-0.53572 -11.89759,-0.93478 -17.74414,-1.20508 -5.84656,-0.2703 -11.62438,-0.41267 -17.33204,-0.4336 -5.70765,-0.0209 -11.3447,0.0786 -16.91015,0.29102 -5.56545,0.2124 -11.0586,0.53711 -16.47852,0.9668 -5.41992,0.42968 -10.76602,0.96477 -16.03711,1.5957 -5.27108,0.63093 -10.467,1.3577 -15.58593,2.17383 -5.11894,0.81612 -10.16154,1.72175 -15.125,2.70703 -4.96347,0.98528 -9.84766,2.05106 -14.65235,3.18945 -4.80469,1.13839 -9.52928,2.34954 -14.17187,3.625 -4.6426,1.27546 -9.20445,2.61524 -13.68164,4.01172 -8.95438,2.79297 -17.57283,5.81138 -25.84571,8.99219 -8.27288,3.1808 -16.1988,6.52455 -23.76367,9.96484 -7.56487,3.44029 -14.769247,6.9774 -21.599607,10.54883 -6.83036,3.57143 -13.28808,7.17578 -19.35742,10.75 -6.06934,3.57422 -11.7514,7.11775 -17.0332,10.56641 -5.28181,3.44866 -10.16309,6.80329 -14.63086,9.99804 -4.46778,3.19476 -8.52121,6.23047 -12.14844,9.04297 -7.25446,5.625 -12.8019,10.3577 -16.5351601,13.6836 -3.73326,3.32589 -5.65234,5.24414 -5.65234,5.24414 z" />
    <path
       style="fill:none;stroke:#000000;stroke-width:3;stroke-linecap:butt;stroke-linejoin:miter;stroke-miterlimit:4;stroke-dasharray:none;stroke-opacity:1"
       d="m 1.9588829,301.00901 c 0,0 122.8571371,-122.85714 314.2857071,-105.71428 191.42855,17.14286 551.42855,2.85714 645.71425,-5.71429 94.28566,-8.57143 371.42856,-2.85715 514.28566,-37.14285 98.272,-23.58528 115.8735,-27.98955 125.4456,-28.59899 4.3428,-0.27649 0,0 0,0"
       id="path2765-6"
       sodipodi:nodetypes="cssssc" />
  </g>
</svg>
