<?xml version="1.0" encoding="UTF-8" standalone="no"?>
<svg
   xmlns:dc="http://purl.org/dc/elements/1.1/"
   xmlns:cc="http://creativecommons.org/ns#"
   xmlns:rdf="http://www.w3.org/1999/02/22-rdf-syntax-ns#"
   xmlns:svg="http://www.w3.org/2000/svg"
   xmlns="http://www.w3.org/2000/svg"
   xmlns:sodipodi="http://sodipodi.sourceforge.net/DTD/sodipodi-0.dtd"
   xmlns:inkscape="http://www.inkscape.org/namespaces/inkscape"
   width="1600px"
   height="400px"
   viewBox="0 0 1600 400"
   version="1.1"
   id="SVGRoot"
   sodipodi:docname="textToAbout.svg"
   inkscape:version="1.0.2-2 (e86c870879, 2021-01-15)">
  <defs
     id="defs2183" />
  <sodipodi:namedview
     id="base"
     pagecolor="#ffffff"
     bordercolor="#666666"
     borderopacity="1.0"
     inkscape:pageopacity="0.0"
     inkscape:pageshadow="2"
     inkscape:zoom="0.35"
     inkscape:cx="707.63848"
     inkscape:cy="225.46489"
     inkscape:document-units="px"
     inkscape:current-layer="layer1"
     inkscape:document-rotation="0"
     showgrid="false"
     inkscape:window-width="1366"
     inkscape:window-height="705"
     inkscape:window-x="-8"
     inkscape:window-y="-8"
     inkscape:window-maximized="1" />
  <metadata
     id="metadata2186">
    <rdf:RDF>
      <cc:Work
         rdf:about="">
        <dc:format>image/svg+xml</dc:format>
        <dc:type
           rdf:resource="http://purl.org/dc/dcmitype/StillImage" />
        <dc:title></dc:title>
      </cc:Work>
    </rdf:RDF>
  </metadata>
  <g
     inkscape:label="Layer 1"
     inkscape:groupmode="layer"
     id="layer1">
    <path
       id="rect2761"
       style="fill:#113734;stroke-width:2;fill-opacity:1"
       d="M 0 105.71484 L 0 405.71484 L 1602.8574 405.71484 L 1602.8574 281.92188 C 1601.5684 281.73517 1600.8298 281.67488 1599.2852 281.42773 C 1594.8209 280.71345 1589.2411 279.73186 1582.2656 278.39258 C 1575.2902 277.05329 1566.9196 275.3577 1556.875 273.21484 C 1546.8304 271.07199 1535.1113 268.48242 1521.4395 265.35742 C 1507.7676 262.23242 1492.1423 258.57087 1474.2852 254.28516 C 1465.3566 252.1423 1455.9042 250.15611 1446.0039 248.3125 C 1436.1037 246.46889 1425.7561 244.76814 1415.0391 243.19727 C 1404.322 241.6264 1393.2345 240.18597 1381.8555 238.86133 C 1370.4764 237.53669 1358.8061 236.32757 1346.9199 235.22266 C 1335.0338 234.11775 1322.9318 233.11677 1310.6934 232.20508 C 1298.4549 231.29339 1286.0804 230.47154 1273.6445 229.72656 C 1248.7729 228.23661 1223.6599 227.05441 1198.9277 226.07227 C 1174.1956 225.09012 1149.844 224.30748 1126.4902 223.62109 C 1103.1364 222.93471 1080.7815 222.34291 1060.0449 221.74023 C 1039.3083 221.13756 1020.1892 220.524 1003.3086 219.79297 C 994.8683 219.42746 986.98814 219.03306 979.74414 218.5957 C 972.50014 218.15834 965.89286 217.67829 960 217.14258 C 948.21429 216.07115 932.27623 214.90988 913.03516 213.73242 C 893.79409 212.55497 871.25 211.36105 846.25 210.22266 C 821.25 209.08426 793.79492 208.00307 764.73242 207.04883 C 735.66992 206.09459 705.00084 205.26758 673.57227 204.64258 C 642.14369 204.01758 609.95564 203.59403 577.85742 203.44336 C 545.75921 203.29269 513.74916 203.41602 482.67773 203.88477 C 467.14202 204.11914 451.8418 204.43903 436.88086 204.85547 C 421.91992 205.2719 407.29911 205.78376 393.125 206.40039 C 378.95089 207.01702 365.22405 207.73926 352.04883 208.57422 C 338.8736 209.40918 326.24944 210.35631 314.28516 211.42773 C 308.30301 211.96345 302.38757 212.36251 296.54102 212.63281 C 290.69446 212.90311 284.91664 213.04548 279.20898 213.06641 C 273.50133 213.08733 267.86428 212.98779 262.29883 212.77539 C 256.73338 212.56299 251.24023 212.23828 245.82031 211.80859 C 240.40039 211.37891 235.05429 210.84382 229.7832 210.21289 C 224.51212 209.58196 219.3162 208.85519 214.19727 208.03906 C 209.07833 207.22294 204.03573 206.31731 199.07227 205.33203 C 194.1088 204.34675 189.22461 203.28097 184.41992 202.14258 C 179.61523 201.00419 174.89064 199.79304 170.24805 198.51758 C 165.60545 197.24212 161.0436 195.90234 156.56641 194.50586 C 147.61203 191.71289 138.99358 188.69448 130.7207 185.51367 C 122.44782 182.33287 114.5219 178.98912 106.95703 175.54883 C 99.39216 172.10854 92.187779 168.57143 85.357422 165 C 78.527065 161.42857 72.069336 157.82422 66 154.25 C 59.930664 150.67578 54.248605 147.13225 48.966797 143.68359 C 43.684989 140.23493 38.803711 136.8803 34.335938 133.68555 C 29.868164 130.49079 25.814732 127.45508 22.1875 124.64258 C 14.933036 119.01758 9.3856026 114.28488 5.6523438 110.95898 C 1.9190849 107.63309 0 105.71484 0 105.71484 z " />
    <path
       style="fill:none;stroke:#000000;stroke-width:3;stroke-linecap:butt;stroke-linejoin:miter;stroke-miterlimit:4;stroke-dasharray:none;stroke-opacity:1"
       d="m 2.2430833e-4,105.49332 c 0,0 122.85713569167,122.85714 314.28570569167,105.71428 191.42858,-17.14286 551.42858,-2.85714 645.71429,5.71429 94.28568,8.57143 371.42858,2.85715 514.28568,37.14285 98.272,23.58528 115.8735,27.98955 125.4456,28.59899 4.3428,0.27649 0,0 0,0"
       id="path2765"
       sodipodi:nodetypes="cssssc" />
  </g>
</svg>
